<svg width="24" height="24" viewBox="0 0 24 24" fill="none" xmlns="http://www.w3.org/2000/svg">
<mask id="mask0_337_1593" style="mask-type:alpha" maskUnits="userSpaceOnUse" x="0" y="0" width="24" height="24">
<rect width="24" height="24" fill="#D9D9D9"/>
</mask>
<g mask="url(#mask0_337_1593)">
<path d="M6.775 19.7C6.475 19.8333 6.18733 19.8123 5.912 19.637C5.63733 19.4623 5.5 19.2083 5.5 18.875V5.3C5.5 4.8 5.675 4.375 6.025 4.025C6.375 3.675 6.8 3.5 7.3 3.5H13V5H7.3C7.23333 5 7.16667 5.03333 7.1 5.1C7.03333 5.16667 7 5.23333 7 5.3V17.95L12 15.8L17 17.95V11H18.5V18.875C18.5 19.2083 18.3623 19.4623 18.087 19.637C17.8123 19.8123 17.525 19.8333 17.225 19.7L12 17.45L6.775 19.7ZM17.75 9C17.5333 9 17.354 8.929 17.212 8.787C17.0707 8.64567 17 8.46667 17 8.25V7H15.75C15.5333 7 15.3543 6.929 15.213 6.787C15.071 6.64567 15 6.46667 15 6.25C15 6.03333 15.071 5.85433 15.213 5.713C15.3543 5.571 15.5333 5.5 15.75 5.5H17V4.25C17 4.03333 17.0707 3.854 17.212 3.712C17.354 3.57067 17.5333 3.5 17.75 3.5C17.9667 3.5 18.146 3.57067 18.288 3.712C18.4293 3.854 18.5 4.03333 18.5 4.25V5.5H19.75C19.9667 5.5 20.146 5.571 20.288 5.713C20.4293 5.85433 20.5 6.03333 20.5 6.25C20.5 6.46667 20.4293 6.64567 20.288 6.787C20.146 6.929 19.9667 7 19.75 7H18.5V8.25C18.5 8.46667 18.4293 8.64567 18.288 8.787C18.146 8.929 17.9667 9 17.75 9Z" fill="#002145"/>
</g>
</svg>
