<svg width="24" height="24" viewBox="0 0 24 24" fill="none" xmlns="http://www.w3.org/2000/svg">
<mask id="mask0_337_2342" style="mask-type:alpha" maskUnits="userSpaceOnUse" x="0" y="0" width="24" height="24">
<rect width="24" height="24" fill="#D9D9D9"/>
</mask>
<g mask="url(#mask0_337_2342)">
<path d="M9.27495 17.8C8.75828 17.8 8.32495 17.625 7.97495 17.275C7.62495 16.925 7.44995 16.5 7.44995 16V4.62499C7.44995 4.10832 7.62495 3.67499 7.97495 3.32499C8.32495 2.97499 8.75828 2.79999 9.27495 2.79999H17.625C18.125 2.79999 18.5543 2.97899 18.913 3.33699C19.271 3.69565 19.45 4.12499 19.45 4.62499V16C19.45 16.5 19.271 16.925 18.913 17.275C18.5543 17.625 18.125 17.8 17.625 17.8H9.27495ZM9.27495 16.3H17.625C17.725 16.3 17.8043 16.2707 17.863 16.212C17.921 16.154 17.95 16.0833 17.95 16V4.62499C17.95 4.52499 17.921 4.44565 17.863 4.38699C17.8043 4.32899 17.725 4.29999 17.625 4.29999H9.27495C9.17495 4.29999 9.09595 4.32899 9.03795 4.38699C8.97928 4.44565 8.94995 4.52499 8.94995 4.62499V16C8.94995 16.0833 8.97928 16.154 9.03795 16.212C9.09595 16.2707 9.17495 16.3 9.27495 16.3ZM5.74995 21.3C5.24995 21.3 4.82495 21.125 4.47495 20.775C4.12495 20.425 3.94995 20 3.94995 19.5V7.54999C3.94995 7.34999 4.02062 7.17499 4.16195 7.02499C4.30395 6.87499 4.48328 6.79999 4.69995 6.79999C4.89995 6.79999 5.07495 6.87499 5.22495 7.02499C5.37495 7.17499 5.44995 7.34999 5.44995 7.54999V19.5C5.44995 19.5833 5.47895 19.654 5.53695 19.712C5.59562 19.7707 5.66662 19.8 5.74995 19.8H14.7C14.9 19.8 15.075 19.875 15.225 20.025C15.375 20.175 15.45 20.35 15.45 20.55C15.45 20.7667 15.375 20.9457 15.225 21.087C15.075 21.229 14.9 21.3 14.7 21.3H5.74995Z" fill="#002145"/>
</g>
</svg>
