<svg width="24" height="24" viewBox="0 0 24 24" fill="none" xmlns="http://www.w3.org/2000/svg">
<mask id="mask0_337_1504" style="mask-type:alpha" maskUnits="userSpaceOnUse" x="0" y="0" width="24" height="24">
<rect width="24" height="24" fill="#D9D9D9"/>
</mask>
<g mask="url(#mask0_337_1504)">
<path d="M3 17.5C2.51667 17.5 2.104 17.3293 1.762 16.988C1.42067 16.646 1.25 16.2333 1.25 15.75C1.25 15.2667 1.42067 14.854 1.762 14.512C2.104 14.1707 2.51667 14 3 14C3.11667 14 3.22067 14.004 3.312 14.012C3.404 14.0207 3.49167 14.05 3.575 14.1L8.35 9.325C8.3 9.24167 8.27067 9.154 8.262 9.062C8.254 8.97067 8.25 8.86667 8.25 8.75C8.25 8.26667 8.42067 7.854 8.762 7.512C9.104 7.17067 9.51667 7 10 7C10.4833 7 10.896 7.17067 11.238 7.512C11.5793 7.854 11.75 8.26667 11.75 8.75C11.75 8.81667 11.7167 9 11.65 9.3L14.45 12.1C14.5333 12.05 14.6167 12.0207 14.7 12.012C14.7833 12.004 14.8833 12 15 12C15.1167 12 15.2167 12.004 15.3 12.012C15.3833 12.0207 15.4667 12.05 15.55 12.1L19.35 8.3C19.3 8.21667 19.271 8.13333 19.263 8.05C19.2543 7.96667 19.25 7.86667 19.25 7.75C19.25 7.26667 19.421 6.854 19.763 6.512C20.1043 6.17067 20.5167 6 21 6C21.4833 6 21.896 6.17067 22.238 6.512C22.5793 6.854 22.75 7.26667 22.75 7.75C22.75 8.23333 22.5793 8.646 22.238 8.988C21.896 9.32933 21.4833 9.5 21 9.5C20.8833 9.5 20.7833 9.496 20.7 9.488C20.6167 9.47933 20.5333 9.45 20.45 9.4L16.65 13.2C16.7 13.2833 16.7293 13.3667 16.738 13.45C16.746 13.5333 16.75 13.6333 16.75 13.75C16.75 14.2333 16.5793 14.646 16.238 14.988C15.896 15.3293 15.4833 15.5 15 15.5C14.5167 15.5 14.104 15.3293 13.762 14.988C13.4207 14.646 13.25 14.2333 13.25 13.75C13.25 13.6333 13.254 13.5293 13.262 13.438C13.2707 13.346 13.3 13.2583 13.35 13.175L10.575 10.4C10.4917 10.45 10.404 10.4793 10.312 10.488C10.2207 10.496 10.1167 10.5 10 10.5C9.93333 10.5 9.75 10.4667 9.45 10.4L4.65 15.2C4.7 15.2833 4.72933 15.3667 4.738 15.45C4.746 15.5333 4.75 15.6333 4.75 15.75C4.75 16.2333 4.579 16.646 4.237 16.988C3.89567 17.3293 3.48333 17.5 3 17.5Z" fill="#002145"/>
</g>
</svg>
