<svg width="24" height="24" viewBox="0 0 24 24" fill="none" xmlns="http://www.w3.org/2000/svg">
<mask id="mask0_337_2310" style="mask-type:alpha" maskUnits="userSpaceOnUse" x="0" y="0" width="24" height="24">
<rect width="24" height="24" fill="#D9D9D9"/>
</mask>
<g mask="url(#mask0_337_2310)">
<path d="M5.37578 18.5C4.87578 18.5 4.44678 18.325 4.08878 17.975C3.73011 17.625 3.55078 17.2 3.55078 16.7V7.3C3.55078 6.8 3.73011 6.375 4.08878 6.025C4.44678 5.675 4.87578 5.5 5.37578 5.5H14.7508C15.1008 5.5 15.4258 5.579 15.7258 5.737C16.0258 5.89567 16.2758 6.11667 16.4758 6.4L19.7008 10.95C19.9174 11.2667 20.0258 11.6167 20.0258 12C20.0258 12.3833 19.9174 12.7333 19.7008 13.05L16.4758 17.6C16.2758 17.8667 16.0258 18.0833 15.7258 18.25C15.4258 18.4167 15.1008 18.5 14.7508 18.5H5.37578ZM18.6008 12L15.2258 7.25C15.1758 7.18333 15.1091 7.125 15.0258 7.075C14.9424 7.025 14.8508 7 14.7508 7H5.37578C5.29245 7 5.21745 7.03333 5.15078 7.1C5.08411 7.16667 5.05078 7.23333 5.05078 7.3V16.7C5.05078 16.7667 5.08411 16.8333 5.15078 16.9C5.21745 16.9667 5.29245 17 5.37578 17H14.7508C14.8508 17 14.9424 16.975 15.0258 16.925C15.1091 16.875 15.1758 16.8167 15.2258 16.75L18.6008 12Z" fill="#002145"/>
</g>
</svg>
