<?xml version="1.0" encoding="utf-8"?>
<svg xmlns="http://www.w3.org/2000/svg" viewBox="0 0 26 26" width="208" height="208">
  <path d="M23.28125 11L10 10L10 6.851563C10 6.523438 9.839844 6.277344 9.519531 6.03125C9.199219 5.949219 8.878906 5.949219 8.640625 6.113281C5.359375 8.410156 2.238281 12.257813 2.160156 12.421875C2.082031 12.578125 2.007813 12.8125 2.003906 12.976563C2.003906 12.980469 2 12.988281 2 12.992188C2 13.15625 2.078125 13.402344 2.160156 13.484375C2.238281 13.648438 5.28125 17.507813 8.640625 19.804688C8.960938 19.96875 9.28125 20.050781 9.519531 19.886719C9.839844 19.722656 10 19.476563 10 19.148438L10 16L23.28125 15C23.679688 14.679688 24 13.875 24 12.992188C24 12.195313 23.761719 11.320313 23.28125 11Z" fill="#FFFFFF" />
</svg>