<?xml version="1.0" encoding="utf-8"?>
<svg xmlns="http://www.w3.org/2000/svg" viewBox="0 0 24 24" width="192" height="192">
  <path d="M18,3.5V6h-2.5C14.672,6,14,6.672,14,7.5v0C14,8.328,14.672,9,15.5,9H19c1.105,0,2-0.895,2-2V3.5C21,2.672,20.328,2,19.5,2h0C18.672,2,18,2.672,18,3.5z" fill="#5B5B5B" />
  <path d="M5.136,10.598c0.533-2.748,2.758-4.954,5.509-5.471C13.134,4.66,15.442,5.514,17,7.106V7h3.651c-1.885-3.253-5.541-5.353-9.655-4.951c-4.629,0.452-8.421,4.188-8.933,8.81C2.021,11.244,2.001,11.624,2.001,12H5.01C5.01,11.541,5.044,11.074,5.136,10.598z" fill="#5B5B5B" />
  <path d="M12,22c4.927,0,9.022-3.564,9.848-8.254C22.008,12.84,21.34,12,20.42,12h-0.093c-0.727,0-1.31,0.543-1.44,1.258C18.294,16.524,15.436,19,12,19c-3.865,0-6.989-3.135-6.99-7H2.001C2.001,17.523,6.477,22,12,22z" opacity=".35" fill="#5B5B5B" />
</svg>